<svg id="visual" viewBox="0 0 1920 1080" width="1920" height="1080" xmlns="http://www.w3.org/2000/svg" xmlns:xlink="http://www.w3.org/1999/xlink" version="1.1"><path d="M0 529L64 551.8C128 574.7 256 620.3 384 626.5C512 632.7 640 599.3 768 600.7C896 602 1024 638 1152 649C1280 660 1408 646 1536 675.5C1664 705 1792 778 1856 814.5L1920 851L1920 1081L1856 1081C1792 1081 1664 1081 1536 1081C1408 1081 1280 1081 1152 1081C1024 1081 896 1081 768 1081C640 1081 512 1081 384 1081C256 1081 128 1081 64 1081L0 1081Z" fill="#007082" stroke-linecap="round" stroke-linejoin="miter"></path></svg>