<svg id="visual" viewBox="0 0 900 450" width="900" height="450" xmlns="http://www.w3.org/2000/svg" xmlns:xlink="http://www.w3.org/1999/xlink" version="1.1"><rect x="0" y="0" width="900" height="450" fill="#001220"></rect><path d="M0 344L21.5 335.3C43 326.7 86 309.3 128.8 303.3C171.7 297.3 214.3 302.7 257.2 295.5C300 288.3 343 268.7 385.8 272.8C428.7 277 471.3 305 514.2 319.8C557 334.7 600 336.3 642.8 327.5C685.7 318.7 728.3 299.3 771.2 293.8C814 288.3 857 296.7 878.5 300.8L900 305L900 451L878.5 451C857 451 814 451 771.2 451C728.3 451 685.7 451 642.8 451C600 451 557 451 514.2 451C471.3 451 428.7 451 385.8 451C343 451 300 451 257.2 451C214.3 451 171.7 451 128.8 451C86 451 43 451 21.5 451L0 451Z" fill="#007082" stroke-linecap="round" stroke-linejoin="miter"></path></svg>