<svg viewBox="0 0 1920 1080" height="1080" width="1920" xmlns="http://www.w3.org/2000/svg" version="1.1"><g transform-origin="center" transform="scale(1, 1) rotate(0)"><rect x="0" y="0" width="1920" height="1080" fill="#171718"></rect><linearGradient id="linear-gradient-r4"><stop offset="0%" stop-color="#2bc2b5ff" stop-opacity="100%"></stop><stop offset="100%" stop-color="#ff0092ff" stop-opacity="100%"></stop></linearGradient><filter id="shadow-r4" x="0" width="100%" y="-20%" height="150%"><feDropShadow dx="-9" dy="-1" stdDeviation="8" flood-color="#00000000"></feDropShadow></filter><path d="M0 0 0,644.0372132297606 C 76.80000000000001,650.1237915160508 230.39999999999998,670.7718482830749 384,674.4701046612114 C 537.6,678.1683610393479 614.4,654.3158513520285 768,662.5284951204434 C 921.6,670.7411388888582 998.4,723.9788558938355 1152,715.5333235032857 C 1305.6,707.087791112736 1382.4,630.1788087840379 1536,620.3008331676946 C 1689.6,610.4228575513513 1843.2,656.9749229707942 1920,666.143445421569 L1920 1080 L0 1080Z" fill="none" stroke-linecap="round" filter="url(#shadow-r4)" stroke-width="1" style="transition: all 0.4s cubic-bezier(0.16, 1, 0.3, 1) 0s; fill: url(&quot;#linear-gradient-r4&quot;);"></path><path d="M0 0 0,708.249387305975 C 76.8,727.6510130420979 230.39999999999998,782.209543875726 384,805.2575159865897 C 537.6,828.3054880974535 614.4,839.3024511863385 768,823.4892478602939 C 921.6,807.6760445342493 998.4,754.4390210635868 1152,726.1914993563668 C 1305.6,697.9439776491467 1382.4,681.3995380263405 1536,682.2516393241939 C 1689.6,683.1037406220474 1843.2,720.8119325413462 1920,730.4520058456343 L1920 1080 L0 1080Z" fill="none" stroke-linecap="round" filter="url(#shadow-r4)" stroke-width="1" style="transition: all 0.4s cubic-bezier(0.16, 1, 0.3, 1) 0s; fill: url(&quot;#linear-gradient-r4&quot;);"></path></g></svg>