<svg id="visual" viewBox="0 0 1920 1080" width="1920" height="1080" xmlns="http://www.w3.org/2000/svg" xmlns:xlink="http://www.w3.org/1999/xlink" version="1.1"> <rect x="0" y="0" width="1920" height="1080" fill="#171718"></rect><path d="M0 663L29.2 664.7C58.3 666.3 116.7 669.7 174.8 682.8C233 696 291 719 349.2 734.2C407.3 749.3 465.7 756.7 523.8 758.2C582 759.7 640 755.3 698.2 739C756.3 722.7 814.7 694.3 872.8 696.5C931 698.7 989 731.3 1047.2 740.2C1105.3 749 1163.7 734 1221.8 728.2C1280 722.3 1338 725.7 1396.2 721.2C1454.3 716.7 1512.7 704.3 1570.8 704C1629 703.7 1687 715.3 1745.2 725.7C1803.3 736 1861.7 745 1890.8 749.5L1920 754L1920 0L1890.8 0C1861.7 0 1803.3 0 1745.2 0C1687 0 1629 0 1570.8 0C1512.7 0 1454.3 0 1396.2 0C1338 0 1280 0 1221.8 0C1163.7 0 1105.3 0 1047.2 0C989 0 931 0 872.8 0C814.7 0 756.3 0 698.2 0C640 0 582 0 523.8 0C465.7 0 407.3 0 349.2 0C291 0 233 0 174.8 0C116.7 0 58.3 0 29.2 0L0 0Z" fill="#2bc2b5"></path><path d="M0 630L29.2 630.3C58.3 630.7 116.7 631.3 174.8 620.5C233 609.7 291 587.3 349.2 573.3C407.3 559.3 465.7 553.7 523.8 558C582 562.3 640 576.7 698.2 578C756.3 579.3 814.7 567.7 872.8 560.2C931 552.7 989 549.3 1047.2 549.2C1105.3 549 1163.7 552 1221.8 563.3C1280 574.7 1338 594.3 1396.2 607.7C1454.3 621 1512.7 628 1570.8 632.8C1629 637.7 1687 640.3 1745.2 630.7C1803.3 621 1861.7 599 1890.8 588L1920 577L1920 0L1890.8 0C1861.7 0 1803.3 0 1745.2 0C1687 0 1629 0 1570.8 0C1512.7 0 1454.3 0 1396.2 0C1338 0 1280 0 1221.8 0C1163.7 0 1105.3 0 1047.2 0C989 0 931 0 872.8 0C814.7 0 756.3 0 698.2 0C640 0 582 0 523.8 0C465.7 0 407.3 0 349.2 0C291 0 233 0 174.8 0C116.7 0 58.3 0 29.2 0L0 0Z" fill="#119ba6"></path><path d="M0 487L29.2 495.8C58.3 504.7 116.7 522.3 174.8 531.8C233 541.3 291 542.7 349.2 536.2C407.3 529.7 465.7 515.3 523.8 497.3C582 479.3 640 457.7 698.2 459.7C756.3 461.7 814.7 487.3 872.8 500.7C931 514 989 515 1047.2 515.3C1105.3 515.7 1163.7 515.3 1221.8 506C1280 496.7 1338 478.3 1396.2 468.3C1454.3 458.3 1512.7 456.7 1570.8 460.7C1629 464.7 1687 474.3 1745.2 482.3C1803.3 490.3 1861.7 496.7 1890.8 499.8L1920 503L1920 0L1890.8 0C1861.7 0 1803.3 0 1745.2 0C1687 0 1629 0 1570.8 0C1512.7 0 1454.3 0 1396.2 0C1338 0 1280 0 1221.8 0C1163.7 0 1105.3 0 1047.2 0C989 0 931 0 872.8 0C814.7 0 756.3 0 698.2 0C640 0 582 0 523.8 0C465.7 0 407.3 0 349.2 0C291 0 233 0 174.8 0C116.7 0 58.3 0 29.2 0L0 0Z" fill="#26758a"></path><path d="M0 351L29.2 363.5C58.3 376 116.7 401 174.8 397.5C233 394 291 362 349.2 354.8C407.3 347.7 465.7 365.3 523.8 365.5C582 365.7 640 348.3 698.2 342.8C756.3 337.3 814.7 343.7 872.8 351.8C931 360 989 370 1047.2 368C1105.3 366 1163.7 352 1221.8 344.8C1280 337.7 1338 337.3 1396.2 346C1454.3 354.7 1512.7 372.3 1570.8 370.7C1629 369 1687 348 1745.2 337.3C1803.3 326.7 1861.7 326.3 1890.8 326.2L1920 326L1920 0L1890.8 0C1861.7 0 1803.3 0 1745.2 0C1687 0 1629 0 1570.8 0C1512.7 0 1454.3 0 1396.2 0C1338 0 1280 0 1221.8 0C1163.7 0 1105.3 0 1047.2 0C989 0 931 0 872.8 0C814.7 0 756.3 0 698.2 0C640 0 582 0 523.8 0C465.7 0 407.3 0 349.2 0C291 0 233 0 174.8 0C116.7 0 58.3 0 29.2 0L0 0Z" fill="#305266"></path><path d="M0 299L29.2 284.5C58.3 270 116.7 241 174.8 233.3C233 225.7 291 239.3 349.2 253.3C407.3 267.3 465.7 281.7 523.8 286.5C582 291.3 640 286.7 698.2 277C756.3 267.3 814.7 252.7 872.8 251.8C931 251 989 264 1047.2 273.3C1105.3 282.7 1163.7 288.3 1221.8 292.2C1280 296 1338 298 1396.2 298.7C1454.3 299.3 1512.7 298.7 1570.8 296C1629 293.3 1687 288.7 1745.2 280.8C1803.3 273 1861.7 262 1890.8 256.5L1920 251L1920 0L1890.8 0C1861.7 0 1803.3 0 1745.2 0C1687 0 1629 0 1570.8 0C1512.7 0 1454.3 0 1396.2 0C1338 0 1280 0 1221.8 0C1163.7 0 1105.3 0 1047.2 0C989 0 931 0 872.8 0C814.7 0 756.3 0 698.2 0C640 0 582 0 523.8 0C465.7 0 407.3 0 349.2 0C291 0 233 0 174.8 0C116.7 0 58.3 0 29.2 0L0 0Z" fill="#2a323e"></path><path d="M0 100L29.2 107.7C58.3 115.3 116.7 130.7 174.8 133.8C233 137 291 128 349.2 126.5C407.3 125 465.7 131 523.8 137.2C582 143.3 640 149.7 698.2 146.5C756.3 143.3 814.7 130.7 872.8 134.2C931 137.7 989 157.3 1047.2 160.3C1105.3 163.3 1163.7 149.7 1221.8 142.3C1280 135 1338 134 1396.2 135.8C1454.3 137.7 1512.7 142.3 1570.8 141.5C1629 140.7 1687 134.3 1745.2 138.8C1803.3 143.3 1861.7 158.7 1890.8 166.3L1920 174L1920 0L1890.8 0C1861.7 0 1803.3 0 1745.2 0C1687 0 1629 0 1570.8 0C1512.7 0 1454.3 0 1396.2 0C1338 0 1280 0 1221.8 0C1163.7 0 1105.3 0 1047.2 0C989 0 931 0 872.8 0C814.7 0 756.3 0 698.2 0C640 0 582 0 523.8 0C465.7 0 407.3 0 349.2 0C291 0 233 0 174.8 0C116.7 0 58.3 0 29.2 0L0 0Z" fill="#171718"></path></svg>