<svg id="visual" viewBox="0 0 900 450" width="900" height="450" xmlns="http://www.w3.org/2000/svg" xmlns:xlink="http://www.w3.org/1999/xlink" version="1.1"><rect x="0" y="0" width="900" height="450" fill="#001220"></rect><path d="M0 338L15 343C30 348 60 358 90 355.7C120 353.3 150 338.7 180 331.7C210 324.7 240 325.3 270 328.5C300 331.7 330 337.3 360 340.8C390 344.3 420 345.7 450 351.2C480 356.7 510 366.3 540 367.2C570 368 600 360 630 356.3C660 352.7 690 353.3 720 349.2C750 345 780 336 810 333C840 330 870 333 885 334.5L900 336L900 0L885 0C870 0 840 0 810 0C780 0 750 0 720 0C690 0 660 0 630 0C600 0 570 0 540 0C510 0 480 0 450 0C420 0 390 0 360 0C330 0 300 0 270 0C240 0 210 0 180 0C150 0 120 0 90 0C60 0 30 0 15 0L0 0Z" fill="#79fac5"></path><path d="M0 295L15 293.5C30 292 60 289 90 295.8C120 302.7 150 319.3 180 321C210 322.7 240 309.3 270 299.3C300 289.3 330 282.7 360 281.3C390 280 420 284 450 288.5C480 293 510 298 540 306.3C570 314.7 600 326.3 630 329.8C660 333.3 690 328.7 720 322.2C750 315.7 780 307.3 810 303.5C840 299.7 870 300.3 885 300.7L900 301L900 0L885 0C870 0 840 0 810 0C780 0 750 0 720 0C690 0 660 0 630 0C600 0 570 0 540 0C510 0 480 0 450 0C420 0 390 0 360 0C330 0 300 0 270 0C240 0 210 0 180 0C150 0 120 0 90 0C60 0 30 0 15 0L0 0Z" fill="#51debf"></path><path d="M0 277L15 274.2C30 271.3 60 265.7 90 259.2C120 252.7 150 245.3 180 243.7C210 242 240 246 270 248.5C300 251 330 252 360 254.3C390 256.7 420 260.3 450 262.5C480 264.7 510 265.3 540 261.2C570 257 600 248 630 246.8C660 245.7 690 252.3 720 251.5C750 250.7 780 242.3 810 238.7C840 235 870 236 885 236.5L900 237L900 0L885 0C870 0 840 0 810 0C780 0 750 0 720 0C690 0 660 0 630 0C600 0 570 0 540 0C510 0 480 0 450 0C420 0 390 0 360 0C330 0 300 0 270 0C240 0 210 0 180 0C150 0 120 0 90 0C60 0 30 0 15 0L0 0Z" fill="#2bc2b5"></path><path d="M0 215L15 209.8C30 204.7 60 194.3 90 193.3C120 192.3 150 200.7 180 208.2C210 215.7 240 222.3 270 226.5C300 230.7 330 232.3 360 224C390 215.7 420 197.3 450 195C480 192.7 510 206.3 540 210C570 213.7 600 207.3 630 200.5C660 193.7 690 186.3 720 191.8C750 197.3 780 215.7 810 218.5C840 221.3 870 208.7 885 202.3L900 196L900 0L885 0C870 0 840 0 810 0C780 0 750 0 720 0C690 0 660 0 630 0C600 0 570 0 540 0C510 0 480 0 450 0C420 0 390 0 360 0C330 0 300 0 270 0C240 0 210 0 180 0C150 0 120 0 90 0C60 0 30 0 15 0L0 0Z" fill="#00a6a8"></path><path d="M0 172L15 173.5C30 175 60 178 90 172.3C120 166.7 150 152.3 180 145.5C210 138.7 240 139.3 270 143C300 146.7 330 153.3 360 155.7C390 158 420 156 450 157.2C480 158.3 510 162.7 540 163C570 163.3 600 159.7 630 154.5C660 149.3 690 142.7 720 144.2C750 145.7 780 155.3 810 154.8C840 154.3 870 143.7 885 138.3L900 133L900 0L885 0C870 0 840 0 810 0C780 0 750 0 720 0C690 0 660 0 630 0C600 0 570 0 540 0C510 0 480 0 450 0C420 0 390 0 360 0C330 0 300 0 270 0C240 0 210 0 180 0C150 0 120 0 90 0C60 0 30 0 15 0L0 0Z" fill="#008b97"></path><path d="M0 94L15 94.2C30 94.3 60 94.7 90 94.8C120 95 150 95 180 98.8C210 102.7 240 110.3 270 116C300 121.7 330 125.3 360 125.3C390 125.3 420 121.7 450 116.8C480 112 510 106 540 106C570 106 600 112 630 111.5C660 111 690 104 720 100C750 96 780 95 810 96.8C840 98.7 870 103.3 885 105.7L900 108L900 0L885 0C870 0 840 0 810 0C780 0 750 0 720 0C690 0 660 0 630 0C600 0 570 0 540 0C510 0 480 0 450 0C420 0 390 0 360 0C330 0 300 0 270 0C240 0 210 0 180 0C150 0 120 0 90 0C60 0 30 0 15 0L0 0Z" fill="#007082"></path><path d="M0 61L15 62C30 63 60 65 90 67.3C120 69.7 150 72.3 180 72C210 71.7 240 68.3 270 66.7C300 65 330 65 360 60C390 55 420 45 450 42.8C480 40.7 510 46.3 540 46.3C570 46.3 600 40.7 630 39C660 37.3 690 39.7 720 44C750 48.3 780 54.7 810 55.3C840 56 870 51 885 48.5L900 46L900 0L885 0C870 0 840 0 810 0C780 0 750 0 720 0C690 0 660 0 630 0C600 0 570 0 540 0C510 0 480 0 450 0C420 0 390 0 360 0C330 0 300 0 270 0C240 0 210 0 180 0C150 0 120 0 90 0C60 0 30 0 15 0L0 0Z" fill="#00566b"></path></svg>