<svg id="visual" viewBox="0 0 900 450" width="900" height="450" xmlns="http://www.w3.org/2000/svg" xmlns:xlink="http://www.w3.org/1999/xlink" version="1.1"><rect x="0" y="0" width="900" height="450" fill="#001220"></rect><path d="M0 272L10 266.3C20 260.7 40 249.3 60 246.3C80 243.3 100 248.7 120 251.2C140 253.7 160 253.3 180 251.5C200 249.7 220 246.3 240 244.7C260 243 280 243 300 246C320 249 340 255 360 255.2C380 255.3 400 249.7 420 249.2C440 248.7 460 253.3 480 252.5C500 251.7 520 245.3 540 242C560 238.7 580 238.3 600 241.2C620 244 640 250 660 258.3C680 266.7 700 277.3 720 281.3C740 285.3 760 282.7 780 281.7C800 280.7 820 281.3 840 282C860 282.7 880 283.3 890 283.7L900 284L900 0L890 0C880 0 860 0 840 0C820 0 800 0 780 0C760 0 740 0 720 0C700 0 680 0 660 0C640 0 620 0 600 0C580 0 560 0 540 0C520 0 500 0 480 0C460 0 440 0 420 0C400 0 380 0 360 0C340 0 320 0 300 0C280 0 260 0 240 0C220 0 200 0 180 0C160 0 140 0 120 0C100 0 80 0 60 0C40 0 20 0 10 0L0 0Z" fill="#79fac5"></path><path d="M0 222L10 226.3C20 230.7 40 239.3 60 242.3C80 245.3 100 242.7 120 238.7C140 234.7 160 229.3 180 229C200 228.7 220 233.3 240 237.2C260 241 280 244 300 239.3C320 234.7 340 222.3 360 215.2C380 208 400 206 420 207.3C440 208.7 460 213.3 480 220.7C500 228 520 238 540 239.8C560 241.7 580 235.3 600 235.2C620 235 640 241 660 238.7C680 236.3 700 225.7 720 221C740 216.3 760 217.7 780 223.3C800 229 820 239 840 240.2C860 241.3 880 233.7 890 229.8L900 226L900 0L890 0C880 0 860 0 840 0C820 0 800 0 780 0C760 0 740 0 720 0C700 0 680 0 660 0C640 0 620 0 600 0C580 0 560 0 540 0C520 0 500 0 480 0C460 0 440 0 420 0C400 0 380 0 360 0C340 0 320 0 300 0C280 0 260 0 240 0C220 0 200 0 180 0C160 0 140 0 120 0C100 0 80 0 60 0C40 0 20 0 10 0L0 0Z" fill="#51debf"></path><path d="M0 170L10 174.7C20 179.3 40 188.7 60 188.2C80 187.7 100 177.3 120 172.8C140 168.3 160 169.7 180 171.8C200 174 220 177 240 176.2C260 175.3 280 170.7 300 171C320 171.3 340 176.7 360 176.7C380 176.7 400 171.3 420 169.5C440 167.7 460 169.3 480 172.2C500 175 520 179 540 184.8C560 190.7 580 198.3 600 199.8C620 201.3 640 196.7 660 191.2C680 185.7 700 179.3 720 175.5C740 171.7 760 170.3 780 174.2C800 178 820 187 840 193.3C860 199.7 880 203.3 890 205.2L900 207L900 0L890 0C880 0 860 0 840 0C820 0 800 0 780 0C760 0 740 0 720 0C700 0 680 0 660 0C640 0 620 0 600 0C580 0 560 0 540 0C520 0 500 0 480 0C460 0 440 0 420 0C400 0 380 0 360 0C340 0 320 0 300 0C280 0 260 0 240 0C220 0 200 0 180 0C160 0 140 0 120 0C100 0 80 0 60 0C40 0 20 0 10 0L0 0Z" fill="#2bc2b5"></path><path d="M0 168L10 168.5C20 169 40 170 60 170C80 170 100 169 120 162.8C140 156.7 160 145.3 180 143.3C200 141.3 220 148.7 240 148.7C260 148.7 280 141.3 300 139.3C320 137.3 340 140.7 360 146.8C380 153 400 162 420 163.2C440 164.3 460 157.7 480 152C500 146.3 520 141.7 540 141.7C560 141.7 580 146.3 600 149.3C620 152.3 640 153.7 660 157.3C680 161 700 167 720 169.2C740 171.3 760 169.7 780 166.7C800 163.7 820 159.3 840 156.8C860 154.3 880 153.7 890 153.3L900 153L900 0L890 0C880 0 860 0 840 0C820 0 800 0 780 0C760 0 740 0 720 0C700 0 680 0 660 0C640 0 620 0 600 0C580 0 560 0 540 0C520 0 500 0 480 0C460 0 440 0 420 0C400 0 380 0 360 0C340 0 320 0 300 0C280 0 260 0 240 0C220 0 200 0 180 0C160 0 140 0 120 0C100 0 80 0 60 0C40 0 20 0 10 0L0 0Z" fill="#00a6a8"></path><path d="M0 131L10 124.5C20 118 40 105 60 105.3C80 105.7 100 119.3 120 126.5C140 133.7 160 134.3 180 132.2C200 130 220 125 240 120.5C260 116 280 112 300 110.7C320 109.3 340 110.7 360 109.7C380 108.7 400 105.3 420 102.3C440 99.3 460 96.7 480 99.8C500 103 520 112 540 112.5C560 113 580 105 600 106.3C620 107.7 640 118.3 660 121.5C680 124.7 700 120.3 720 118.5C740 116.7 760 117.3 780 119C800 120.7 820 123.3 840 124.7C860 126 880 126 890 126L900 126L900 0L890 0C880 0 860 0 840 0C820 0 800 0 780 0C760 0 740 0 720 0C700 0 680 0 660 0C640 0 620 0 600 0C580 0 560 0 540 0C520 0 500 0 480 0C460 0 440 0 420 0C400 0 380 0 360 0C340 0 320 0 300 0C280 0 260 0 240 0C220 0 200 0 180 0C160 0 140 0 120 0C100 0 80 0 60 0C40 0 20 0 10 0L0 0Z" fill="#008b97"></path><path d="M0 81L10 76.8C20 72.7 40 64.3 60 64.5C80 64.7 100 73.3 120 74.2C140 75 160 68 180 68.8C200 69.7 220 78.3 240 78.3C260 78.3 280 69.7 300 66.8C320 64 340 67 360 71.5C380 76 400 82 420 86C440 90 460 92 480 93.2C500 94.3 520 94.7 540 90.8C560 87 580 79 600 74.2C620 69.3 640 67.7 660 69.8C680 72 700 78 720 78C740 78 760 72 780 70.3C800 68.7 820 71.3 840 75.8C860 80.3 880 86.7 890 89.8L900 93L900 0L890 0C880 0 860 0 840 0C820 0 800 0 780 0C760 0 740 0 720 0C700 0 680 0 660 0C640 0 620 0 600 0C580 0 560 0 540 0C520 0 500 0 480 0C460 0 440 0 420 0C400 0 380 0 360 0C340 0 320 0 300 0C280 0 260 0 240 0C220 0 200 0 180 0C160 0 140 0 120 0C100 0 80 0 60 0C40 0 20 0 10 0L0 0Z" fill="#007082"></path><path d="M0 53L10 47.3C20 41.7 40 30.3 60 25C80 19.7 100 20.3 120 25C140 29.7 160 38.3 180 38C200 37.7 220 28.3 240 28.7C260 29 280 39 300 39C320 39 340 29 360 25.7C380 22.3 400 25.7 420 27.7C440 29.7 460 30.3 480 33.5C500 36.7 520 42.3 540 44.2C560 46 580 44 600 45.5C620 47 640 52 660 53.5C680 55 700 53 720 50.8C740 48.7 760 46.3 780 43.5C800 40.7 820 37.3 840 38C860 38.7 880 43.3 890 45.7L900 48L900 0L890 0C880 0 860 0 840 0C820 0 800 0 780 0C760 0 740 0 720 0C700 0 680 0 660 0C640 0 620 0 600 0C580 0 560 0 540 0C520 0 500 0 480 0C460 0 440 0 420 0C400 0 380 0 360 0C340 0 320 0 300 0C280 0 260 0 240 0C220 0 200 0 180 0C160 0 140 0 120 0C100 0 80 0 60 0C40 0 20 0 10 0L0 0Z" fill="#00566b"></path></svg>