<svg id="visual" viewBox="0 0 1920 1080" width="1920" height="1080" xmlns="http://www.w3.org/2000/svg" xmlns:xlink="http://www.w3.org/1999/xlink" version="1.1"><path d="M0 822L53.3 828.7C106.7 835.3 213.3 848.7 320 824.2C426.7 799.7 533.3 737.3 640 720.3C746.7 703.3 853.3 731.7 960 744.3C1066.7 757 1173.3 754 1280 769.8C1386.7 785.7 1493.3 820.3 1600 828.2C1706.7 836 1813.3 817 1866.7 807.5L1920 798L1920 0L1866.7 0C1813.3 0 1706.7 0 1600 0C1493.3 0 1386.7 0 1280 0C1173.3 0 1066.7 0 960 0C853.3 0 746.7 0 640 0C533.3 0 426.7 0 320 0C213.3 0 106.7 0 53.3 0L0 0Z" fill="#79fac5"></path><path d="M0 771L53.3 747.8C106.7 724.7 213.3 678.3 320 644.3C426.7 610.3 533.3 588.7 640 586.7C746.7 584.7 853.3 602.3 960 605.7C1066.7 609 1173.3 598 1280 608C1386.7 618 1493.3 649 1600 678.7C1706.7 708.3 1813.3 736.7 1866.7 750.8L1920 765L1920 0L1866.7 0C1813.3 0 1706.7 0 1600 0C1493.3 0 1386.7 0 1280 0C1173.3 0 1066.7 0 960 0C853.3 0 746.7 0 640 0C533.3 0 426.7 0 320 0C213.3 0 106.7 0 53.3 0L0 0Z" fill="#51debf"></path><path d="M0 511L53.3 529.2C106.7 547.3 213.3 583.7 320 592.3C426.7 601 533.3 582 640 559C746.7 536 853.3 509 960 495.5C1066.7 482 1173.3 482 1280 502.2C1386.7 522.3 1493.3 562.7 1600 565.2C1706.7 567.7 1813.3 532.3 1866.7 514.7L1920 497L1920 0L1866.7 0C1813.3 0 1706.7 0 1600 0C1493.3 0 1386.7 0 1280 0C1173.3 0 1066.7 0 960 0C853.3 0 746.7 0 640 0C533.3 0 426.7 0 320 0C213.3 0 106.7 0 53.3 0L0 0Z" fill="#2bc2b5"></path><path d="M0 512L53.3 504.7C106.7 497.3 213.3 482.7 320 481.5C426.7 480.3 533.3 492.7 640 491.8C746.7 491 853.3 477 960 464.7C1066.7 452.3 1173.3 441.7 1280 451.3C1386.7 461 1493.3 491 1600 489.3C1706.7 487.7 1813.3 454.3 1866.7 437.7L1920 421L1920 0L1866.7 0C1813.3 0 1706.7 0 1600 0C1493.3 0 1386.7 0 1280 0C1173.3 0 1066.7 0 960 0C853.3 0 746.7 0 640 0C533.3 0 426.7 0 320 0C213.3 0 106.7 0 53.3 0L0 0Z" fill="#00a6a8"></path><path d="M0 422L53.3 411.3C106.7 400.7 213.3 379.3 320 369.8C426.7 360.3 533.3 362.7 640 352.2C746.7 341.7 853.3 318.3 960 315C1066.7 311.7 1173.3 328.3 1280 339.5C1386.7 350.7 1493.3 356.3 1600 360.3C1706.7 364.3 1813.3 366.7 1866.7 367.8L1920 369L1920 0L1866.7 0C1813.3 0 1706.7 0 1600 0C1493.3 0 1386.7 0 1280 0C1173.3 0 1066.7 0 960 0C853.3 0 746.7 0 640 0C533.3 0 426.7 0 320 0C213.3 0 106.7 0 53.3 0L0 0Z" fill="#008b97"></path><path d="M0 206L53.3 216.3C106.7 226.7 213.3 247.3 320 256C426.7 264.7 533.3 261.3 640 256.8C746.7 252.3 853.3 246.7 960 238C1066.7 229.3 1173.3 217.7 1280 215.7C1386.7 213.7 1493.3 221.3 1600 233.8C1706.7 246.3 1813.3 263.7 1866.7 272.3L1920 281L1920 0L1866.7 0C1813.3 0 1706.7 0 1600 0C1493.3 0 1386.7 0 1280 0C1173.3 0 1066.7 0 960 0C853.3 0 746.7 0 640 0C533.3 0 426.7 0 320 0C213.3 0 106.7 0 53.3 0L0 0Z" fill="#007082"></path><path d="M0 120L53.3 128C106.7 136 213.3 152 320 162.5C426.7 173 533.3 178 640 177.2C746.7 176.3 853.3 169.7 960 154.3C1066.7 139 1173.3 115 1280 116C1386.7 117 1493.3 143 1600 149.2C1706.7 155.3 1813.3 141.7 1866.7 134.8L1920 128L1920 0L1866.7 0C1813.3 0 1706.7 0 1600 0C1493.3 0 1386.7 0 1280 0C1173.3 0 1066.7 0 960 0C853.3 0 746.7 0 640 0C533.3 0 426.7 0 320 0C213.3 0 106.7 0 53.3 0L0 0Z" fill="#00566b"></path></svg>