<svg viewBox="0 0 1920 1080" height="1080" width="1920" xmlns="http://www.w3.org/2000/svg" version="1.1"><g transform-origin="center" transform="scale(1, 1) rotate(0)"><rect x="0" y="0" width="1920" height="1080" fill="#171718"></rect><linearGradient id="linear-gradient-r4"><stop offset="0%" stop-color="#2bc2b5ff" stop-opacity="100%"></stop><stop offset="100%" stop-color="#ff0092ff" stop-opacity="100%"></stop></linearGradient><filter id="shadow-r4" x="0" width="100%" y="-20%" height="150%"><feDropShadow dx="-9" dy="-1" stdDeviation="8" flood-color="#00000000"></feDropShadow></filter><path d="M0 0 0,528.9530623465776 C 76.8,511.67715159265316 230.39999999999998,451.229252532497 384,442.57350857695565 C 537.6,433.9177646214143 614.4,464.72870421588425 768,485.6743425688706 C 921.6,506.619980921857 998.4,555.0523302947915 1152,547.3017003418877 C 1305.6,539.5510703889838 1382.4,456.3577862477861 1536,446.92119280435145 C 1689.6,437.4845993609168 1843.2,489.47922506064174 1920,500.1187331247143 L1920 1080 L0 1080Z" fill="none" stroke-linecap="round" filter="url(#shadow-r4)" stroke-width="1" style="transition: all 0.4s cubic-bezier(0.16, 1, 0.3, 1) 0s; fill: url(&quot;#linear-gradient-r4&quot;);"></path><path d="M0 0 0,526.32742811325 C 76.80000000000001,553.3864116710889 230.39999999999998,663.1639644667971 384,661.6223459024447 C 537.6,660.0807273380924 614.4,521.8551257790718 768,518.619335291488 C 921.6,515.3835448039043 998.4,640.825362279145 1152,645.443393464526 C 1305.6,650.0614246499072 1382.4,574.1686112613044 1536,541.7094912183936 C 1689.6,509.2503711754828 1843.2,494.8601328436564 1920,483.1477932499721 L1920 1080 L0 1080Z" fill="none" stroke-linecap="round" filter="url(#shadow-r4)" stroke-width="1" style="transition: all 0.4s cubic-bezier(0.16, 1, 0.3, 1) 0s; fill: url(&quot;#linear-gradient-r4&quot;);"></path></g></svg>